<svg width="166" height="44" viewBox="0 0 166 44" fill="none" xmlns="http://www.w3.org/2000/svg">
<g clip-path="url(#clip0_125_493)">
<path d="M60.7897 20.2244C60.7897 9.08266 47.1821 0 30.3959 0C13.6107 0 0.00352543 9.08266 0.00352543 20.2244C0.00352543 20.512 0 21.3076 0 21.4084C0 33.2285 11.8936 42.8017 30.3921 42.8017C49.0054 42.8017 60.7897 33.231 60.7897 21.4105C60.7897 20.9972 60.7897 20.7599 60.7897 20.2244Z" fill="#141685"/>
<path d="M59.6257 20.2143C59.6257 30.7183 46.542 39.2336 30.4013 39.2336C14.2612 39.2336 1.17792 30.7183 1.17792 20.2143C1.17812 9.70924 14.2614 1.19409 30.4015 1.19409C46.5422 1.19409 59.6257 9.70924 59.6257 20.2143Z" fill="#05B0D9"/>
<path d="M20.698 14.2138C20.6827 14.2437 20.3911 14.5505 20.58 14.7971C21.0414 15.3965 22.4655 15.7402 23.9061 15.4117C24.7639 15.2155 25.8632 14.326 26.9283 13.4665C28.0821 12.5334 29.2273 11.5994 30.3784 11.2279C31.597 10.8333 32.3778 11.0025 32.8937 11.1614C33.4599 11.3331 34.1251 11.7121 35.1867 12.5224C37.1867 14.052 45.2271 21.1918 46.6164 22.4262C47.7354 21.912 52.7081 19.7341 59.4653 18.2189C58.8782 14.5537 56.6869 11.2009 53.3634 8.45524C48.7314 10.4344 43.0704 11.4671 37.5351 8.71664C37.5066 8.70482 34.5109 7.26239 31.5557 7.33328C27.1636 7.43687 25.261 9.37087 23.2475 11.4177L20.698 14.2138Z" fill="white"/>
<path d="M46.2897 23.2028C46.1956 23.1175 36.8356 14.7853 34.7149 13.1637C33.4879 12.2277 32.8054 11.9888 32.0887 11.8958C31.7154 11.8466 31.2003 11.9171 30.8398 12.0175C29.8533 12.2907 28.5639 13.1682 27.4183 14.0916C26.2327 15.0524 25.1147 15.9573 24.0776 16.1933C22.7523 16.4957 21.1339 16.1389 20.3954 15.6309C20.0962 15.4265 19.8857 15.1897 19.7843 14.9492C19.5116 14.306 20.0149 13.7914 20.0974 13.7053L22.6805 10.8631C22.9806 10.5582 23.2832 10.2531 23.5924 9.95272C22.7589 10.0633 21.9885 10.2797 21.2384 10.4922C20.3025 10.7601 19.4023 11.0148 18.4917 11.0141C18.1116 11.0141 16.0747 10.6745 15.6879 10.5675C13.3506 9.91643 11.2992 9.28287 8.23456 7.82715C4.56251 10.608 2.10715 14.0855 1.39771 17.9153C1.92528 18.0573 2.77532 18.3147 3.13243 18.3951C11.4423 20.2746 14.0306 22.2112 14.4999 22.6152C15.0084 22.0397 15.741 21.6755 16.56 21.6755C17.4797 21.6768 18.308 22.1466 18.8115 22.8732C19.2874 22.4907 19.9436 22.1641 20.7919 22.1646C21.177 22.1646 21.5769 22.2371 21.9806 22.3768C22.9184 22.704 23.402 23.339 23.6529 23.9137C23.9677 23.7692 24.3541 23.6627 24.8095 23.664C25.2568 23.664 25.7224 23.7678 26.1915 23.9741C27.7236 24.6431 27.9621 26.1739 27.8231 27.3282C27.9322 27.3151 28.0419 27.31 28.1535 27.31C29.9699 27.3113 31.4475 28.8132 31.4466 30.6626C31.4466 31.2346 31.3029 31.7725 31.0528 32.2449C31.5472 32.5276 32.8072 33.1671 33.9132 33.0243C34.797 32.9114 35.1326 32.6038 35.2529 32.4308C35.335 32.3118 35.4221 32.173 35.3414 32.0734L32.9966 29.4236C32.9966 29.4236 32.6104 29.052 32.7378 28.909C32.8705 28.7619 33.1086 28.9729 33.2774 29.1166C34.4706 30.1305 35.9279 31.6605 35.9279 31.6605C35.9521 31.677 36.0488 31.8709 36.5875 31.9692C37.0514 32.0536 37.872 32.0046 38.4407 31.5295C38.5844 31.4095 38.7277 31.2599 38.8473 31.1054C38.838 31.1128 38.8301 31.1232 38.8212 31.1268C39.4207 30.3466 38.7549 29.5565 38.7549 29.5565L36.0175 26.4292C36.0175 26.4292 35.6259 26.0613 35.7589 25.9129C35.8781 25.7847 36.1301 25.9788 36.3014 26.1235C37.168 26.8611 38.3926 28.1111 39.5663 29.2807C39.7955 29.4514 40.8274 30.1008 42.193 29.1877C43.0217 28.6349 43.1884 27.9554 43.165 27.4427C43.1073 26.7642 42.5868 26.2809 42.5868 26.2809L38.8473 22.4563C38.8473 22.4563 38.4527 22.1131 38.5921 21.9397C38.7063 21.7935 38.9629 22.004 39.1308 22.147C40.3226 23.161 43.5467 26.1686 43.5467 26.1686C43.5926 26.2018 44.7068 27.0085 46.0836 26.1167C46.5757 25.7967 46.8905 25.3138 46.9173 24.7536C46.9648 23.7804 46.2897 23.2028 46.2897 23.2028Z" fill="white"/>
<path d="M28.1533 28.0512C27.5734 28.0442 26.9393 28.3944 26.8565 28.3436C26.8109 28.3128 26.892 28.0756 26.9463 27.9391C27.0019 27.8035 27.7655 25.4663 25.9044 24.6545C24.4802 24.0317 23.6096 24.7323 23.3103 25.0486C23.2318 25.1313 23.1967 25.1247 23.1876 25.019C23.159 24.5984 22.9738 23.4595 21.7446 23.0781C19.9877 22.531 18.8581 23.7785 18.5715 24.2287C18.4432 23.2099 17.5967 22.4192 16.5598 22.4182C15.4333 22.4169 14.5194 23.3456 14.5181 24.4914C14.5179 25.6372 15.431 26.5663 16.5573 26.5663C17.105 26.5676 17.6014 26.345 17.9675 25.9874C17.9791 25.9984 17.9838 26.0178 17.9776 26.0575C17.8922 26.5703 17.7339 28.4351 19.6534 29.1942C20.423 29.4982 21.0777 29.2721 21.6204 28.8849C21.782 28.7689 21.8085 28.8179 21.7853 28.9723C21.716 29.4516 21.8037 30.4786 23.2185 31.0626C24.2952 31.5074 24.9323 31.0521 25.3495 30.6599C25.5312 30.4909 25.5807 30.5183 25.5903 30.7789C25.6417 32.1664 26.7746 33.2682 28.1506 33.2696C29.5684 33.2711 30.7173 32.1048 30.7179 30.6632C30.7187 29.2204 29.5707 28.0668 28.1533 28.0512Z" fill="white"/>
<path d="M46.6519 22.2053C43.7687 19.6453 37.105 13.7517 35.3002 12.3737C34.2693 11.5846 33.5659 11.1679 32.9485 10.9808C32.6714 10.8956 32.2874 10.7985 31.7932 10.7981C31.3345 10.7981 30.8413 10.8825 30.3266 11.0489C29.1601 11.4243 27.9984 12.3639 26.8744 13.2726L26.8167 13.3192C25.7695 14.1657 24.6878 15.0418 23.8691 15.2279C23.5115 15.3098 23.1438 15.352 22.7774 15.352C21.8602 15.3507 21.0363 15.0813 20.7277 14.6809C20.6767 14.6148 20.7092 14.5072 20.8285 14.3528L20.8444 14.3323L23.3807 11.5513C25.3674 9.53035 27.2437 7.62187 31.5632 7.52103C31.6341 7.51892 31.7073 7.51765 31.7787 7.51765C34.4673 7.51934 37.1552 8.74384 37.4565 8.88561C39.9774 10.1367 42.5794 10.7721 45.1952 10.7745C47.9214 10.7753 50.7339 10.0888 53.6911 8.70354C53.361 8.42083 53.0173 8.14572 52.6635 7.87631C50.0657 9.02211 47.5904 9.60103 45.2023 9.60018C42.7633 9.59807 40.3262 9.00207 37.9604 7.82757C37.8356 7.76702 34.8678 6.34337 31.7797 6.3421C31.6988 6.3421 31.6167 6.34337 31.536 6.34463C27.908 6.43134 25.8642 7.74171 24.4899 8.89025C23.1534 8.92316 22.0002 9.25123 20.974 9.5428C20.0585 9.80166 19.2679 10.0261 18.4967 10.0255C18.179 10.0255 17.6073 9.99597 17.556 9.99428C16.6693 9.96686 12.2017 8.85185 8.64748 7.48305C8.28456 7.74445 7.93554 8.01429 7.59565 8.28897C11.3083 9.83753 15.8265 11.0357 17.2524 11.1291C17.6494 11.1555 18.0722 11.2013 18.495 11.2023C19.4382 11.2023 20.3797 10.9331 21.2909 10.6738C21.8289 10.52 22.4228 10.3529 23.0474 10.231C22.8805 10.3977 22.7144 10.5664 22.5474 10.7365L19.9703 13.5726C19.7677 13.7809 19.3273 14.3368 19.6176 15.0216C19.7331 15.298 19.9674 15.5619 20.2953 15.7866C20.9093 16.2073 22.0091 16.4917 23.0304 16.4927C23.4174 16.4931 23.7842 16.4535 24.1214 16.3767C25.2015 16.1301 26.3346 15.2117 27.5353 14.2408C28.4917 13.4676 29.8507 12.4861 30.8909 12.1975C31.1816 12.1171 31.5387 12.0671 31.8255 12.0671C31.9114 12.0679 31.9923 12.0707 32.0675 12.0815C32.755 12.1703 33.4194 12.4083 34.6061 13.3142C36.7213 14.9307 46.0826 23.2618 46.1743 23.3443C46.1807 23.3494 46.7775 23.8732 46.736 24.7439C46.7139 25.2294 46.4486 25.661 45.9882 25.9598C45.5888 26.2178 45.1761 26.349 44.7593 26.349C44.1337 26.3478 43.7027 26.0499 43.6749 26.0292C43.6403 26.0005 40.4332 23.0087 39.2534 22.0038C39.0653 21.8454 38.8826 21.7027 38.6981 21.7027C38.5991 21.7019 38.512 21.7449 38.4529 21.8202C38.2671 22.053 38.4751 22.3753 38.7202 22.5876L42.4665 26.4186C42.4717 26.4227 42.9336 26.8632 42.9839 27.4509C43.0136 28.086 42.715 28.6172 42.0945 29.0307C41.6526 29.3271 41.2048 29.4776 40.7667 29.4776C40.1916 29.4776 39.7874 29.2107 39.6982 29.1478L39.1607 28.6088C38.1786 27.6256 37.1643 26.6092 36.4221 25.979C36.2412 25.8258 36.0476 25.6845 35.8636 25.6845C35.7726 25.6845 35.6904 25.7188 35.6276 25.7861C35.543 25.8819 35.4839 26.0541 35.6948 26.3395C35.7819 26.457 35.8841 26.5539 35.8841 26.5539L38.618 29.678C38.6406 29.7058 39.1815 30.3596 38.6796 31.0109L38.583 31.1356C38.5013 31.2276 38.4127 31.312 38.3289 31.385C37.8625 31.7744 37.2396 31.816 36.9928 31.816C36.8611 31.816 36.7338 31.8044 36.6232 31.7839C36.3534 31.7348 36.1722 31.6582 36.0847 31.5529L36.0517 31.5177C35.902 31.3607 34.5239 29.9295 33.3836 28.9613C33.2334 28.833 33.0464 28.6714 32.8521 28.6714C32.7563 28.6714 32.6712 28.7098 32.6053 28.7837C32.3797 29.0352 32.7181 29.4109 32.8618 29.5487L35.1938 32.1645C35.1913 32.1877 35.1618 32.2415 35.1054 32.3245C35.0221 32.442 34.739 32.7299 33.8931 32.8378C33.7919 32.8515 33.687 32.8567 33.5835 32.8567C32.7113 32.8567 31.781 32.4264 31.3015 32.1675C31.5197 31.6983 31.6329 31.182 31.6329 30.6641C31.6337 28.7113 30.0753 27.1231 28.1562 27.1218C28.1151 27.1218 28.0716 27.1231 28.0305 27.1246C28.0933 26.2332 27.9695 24.5452 26.2663 23.8021C25.7763 23.5865 25.2873 23.4764 24.8122 23.4764C24.4404 23.4764 24.0829 23.5412 23.7463 23.6726C23.3935 22.9749 22.8077 22.4669 22.0433 22.2019C21.6213 22.0532 21.2009 21.9778 20.7947 21.9778C20.0863 21.9778 19.4334 22.1901 18.8509 22.6116C18.2931 21.9057 17.4501 21.4878 16.5625 21.4878C15.7861 21.4878 15.0391 21.804 14.4854 22.3616C13.7598 21.7979 10.8805 19.9369 3.17476 18.1569C2.80148 18.0712 1.945 17.821 1.42054 17.6649C1.33365 18.0896 1.26708 18.5183 1.22333 18.9512C1.22333 18.9512 2.6447 19.2974 2.92425 19.3613C10.7963 21.1401 13.3973 22.9897 13.8369 23.3393C13.6882 23.703 13.6109 24.0956 13.6098 24.491C13.609 26.1454 14.9317 27.4929 16.5592 27.4942C16.7415 27.4942 16.9223 27.4782 17.1 27.4446C17.3451 28.6621 18.1282 29.5852 19.3252 30.059C19.675 30.1955 20.029 30.266 20.3762 30.266C20.601 30.2664 20.8268 30.2375 21.0479 30.1803C21.2685 30.7514 21.7662 31.4635 22.878 31.923C23.2681 32.0827 23.6579 32.166 24.0366 32.166C24.3462 32.166 24.649 32.1107 24.9377 32.0029C25.4704 33.3232 26.7385 34.1979 28.152 34.1979C29.089 34.1992 29.9884 33.8106 30.6445 33.1238C31.2063 33.4416 32.3915 34.016 33.5891 34.0177C33.7444 34.0177 33.8898 34.0063 34.0352 33.9888C35.2247 33.8357 35.7782 33.3624 36.0326 32.9945C36.0785 32.9304 36.1199 32.8624 36.155 32.7913C36.4358 32.8736 36.7446 32.9405 37.0983 32.9416C37.7481 32.9416 38.3716 32.716 39.0019 32.2489C39.6209 31.7949 40.0609 31.1428 40.1244 30.5877C40.1257 30.5803 40.1269 30.5721 40.1277 30.5639C40.3363 30.608 40.5506 30.6303 40.7644 30.6303C41.4332 30.6303 42.0912 30.4181 42.7197 29.9991C43.9325 29.1902 44.1432 28.1341 44.1231 27.4423C44.335 27.4874 44.5519 27.5104 44.7674 27.5104C45.3956 27.5104 46.0117 27.3182 46.5996 26.9372C47.3511 26.4488 47.8036 25.7001 47.8721 24.8292C47.9191 24.237 47.775 23.6399 47.4679 23.1266C49.4998 22.2363 54.1432 20.5128 59.6111 19.2592C59.5782 18.8278 59.517 18.4018 59.4415 17.9778C52.8253 19.4719 47.8885 21.6456 46.6519 22.2053ZM28.1533 33.0835C26.8686 33.0825 25.8238 32.0666 25.7769 30.7721C25.7734 30.6613 25.7624 30.3662 25.5169 30.3662C25.4161 30.3662 25.3284 30.428 25.2276 30.5206C24.9453 30.7869 24.5853 31.0578 24.0598 31.0578C23.8218 31.0578 23.563 31.0012 23.2903 30.8877C21.9336 30.3288 21.9147 29.3803 21.9699 28.9995C21.9846 28.8978 21.99 28.7919 21.9211 28.7096L21.8378 28.6337H21.7532C21.6843 28.6337 21.6132 28.6624 21.517 28.7309C21.1244 29.0115 20.7482 29.1476 20.3656 29.1476C20.1549 29.1476 19.9388 29.1046 19.7225 29.0197C17.936 28.3124 18.0772 26.5973 18.1645 26.0809C18.1773 25.9764 18.152 25.8952 18.0865 25.8412L17.9604 25.7355L17.8424 25.8503C17.4938 26.1918 17.039 26.3788 16.56 26.3788C15.5368 26.3775 14.7044 25.5319 14.7052 24.4908C14.706 23.4494 15.5393 22.6042 16.5627 22.6055C17.487 22.6055 18.2742 23.3127 18.3922 24.2524L18.4561 24.7591L18.7298 24.3302C18.7605 24.2802 19.5102 23.127 20.888 23.1285C21.1503 23.1285 21.4209 23.1715 21.6932 23.2572C22.7921 23.5983 22.9782 24.6116 23.0068 25.0336C23.0265 25.2798 23.1984 25.2916 23.2322 25.2916C23.327 25.2916 23.3966 25.2302 23.4462 25.1777C23.6536 24.9576 24.1053 24.5914 24.812 24.5914C25.1353 24.5927 25.4796 24.6705 25.8348 24.8258C27.5805 25.5878 26.7887 27.845 26.7792 27.8685C26.6293 28.2425 26.6232 28.4079 26.7643 28.5031L26.8331 28.5366H26.8841C26.9627 28.5366 27.0608 28.5018 27.2224 28.4461C27.46 28.3626 27.8188 28.237 28.1539 28.2379H28.1547C29.4691 28.2522 30.5379 29.3406 30.5375 30.6626C30.5363 31.9983 29.4668 33.0835 28.1533 33.0835Z" fill="#141685"/>
<path d="M164.354 7.33833C163.258 5.93978 161.592 5.24103 159.357 5.24103C157.125 5.24103 155.459 5.93978 154.363 7.33833C153.265 8.73603 152.716 10.388 152.716 12.2941C152.716 14.2342 153.265 15.8923 154.363 17.2725C155.459 18.648 157.125 19.3383 159.357 19.3383C161.592 19.3383 163.258 18.6482 164.354 17.2725C165.453 15.8923 166 14.2342 166 12.2941C166 10.388 165.453 8.73603 164.354 7.33833ZM161.636 15.36C161.104 16.079 160.342 16.4383 159.346 16.4383C158.353 16.4383 157.588 16.079 157.051 15.36C156.514 14.6418 156.247 13.6192 156.247 12.2941C156.247 10.9709 156.514 9.95103 157.051 9.23604C157.588 8.52147 158.353 8.16366 159.346 8.16366C160.342 8.16366 161.104 8.52126 161.636 9.23604C162.168 9.95082 162.435 10.9709 162.435 12.2941C162.435 13.619 162.168 14.6416 161.636 15.36Z" fill="#141685"/>
<path d="M136.317 6.16888C135.205 5.59503 133.931 5.30536 132.499 5.30536C130.296 5.30536 128.741 5.89039 127.837 7.05729C127.268 7.80499 126.948 8.75775 126.874 9.91789H130.165C130.246 9.40586 130.407 9.00037 130.65 8.70057C130.99 8.29529 131.566 8.09254 132.383 8.09254C133.112 8.09254 133.662 8.19423 134.04 8.40352C134.414 8.60985 134.603 8.9856 134.603 9.52801C134.603 9.97528 134.359 10.3023 133.868 10.5145C133.594 10.6363 133.14 10.7377 132.504 10.8185L131.338 10.9648C130.013 11.1344 129.007 11.4196 128.326 11.8177C127.079 12.5479 126.457 13.7273 126.457 15.3585C126.457 16.6149 126.842 17.5875 127.618 18.2729C128.39 18.9586 129.374 19.2459 130.561 19.302C138.003 19.64 137.918 15.3123 137.987 14.4123V9.43097C137.987 7.83368 137.429 6.74547 136.317 6.16888ZM134.589 13.7273C134.566 14.8874 134.239 15.6866 133.612 16.1246C132.984 16.5632 132.298 16.7828 131.555 16.7828C131.084 16.7828 130.685 16.6497 130.357 16.3866C130.029 16.1231 129.867 15.6946 129.867 15.1022C129.867 14.4376 130.134 13.9473 130.67 13.6302C130.99 13.4445 131.511 13.2844 132.238 13.1574L133.016 13.0108C133.402 12.9359 133.707 12.8563 133.929 12.7707C134.154 12.6876 134.371 12.5774 134.589 12.438L134.589 13.7273Z" fill="#141685"/>
<path d="M119.348 8.27275C120.199 8.27275 120.824 8.53984 121.228 9.07403C121.505 9.46939 121.678 9.91518 121.745 10.4095H125.416C125.214 8.52549 124.566 7.21007 123.472 6.4649C122.375 5.72312 120.969 5.34906 119.25 5.34906C117.228 5.34906 115.64 5.98093 114.493 7.24192C113.343 8.50461 112.768 10.2694 112.768 12.538C112.768 14.5467 113.288 16.1841 114.328 17.4459C115.369 18.7071 116.992 19.3386 119.197 19.3386C121.405 19.3386 123.072 18.5822 124.195 17.0693C124.899 16.1318 125.294 15.1366 125.377 14.0845H121.718C121.644 14.78 121.43 15.3471 121.076 15.7841C120.723 16.2191 120.128 16.4387 119.287 16.4387C118.102 16.4387 117.296 15.8893 116.867 14.7874C116.633 14.1997 116.514 13.4216 116.514 12.4534C116.514 11.4378 116.633 10.6234 116.867 10.0078C117.313 8.85208 118.141 8.27275 119.348 8.27275Z" fill="#141685"/>
<path d="M111.784 5.34906C104.244 5.34906 104.69 12.1412 104.69 12.1412V19.0405H108.112V12.569C108.112 11.5089 108.244 10.7238 108.505 10.2131C108.975 9.30842 109.891 8.85419 111.26 8.85419C111.363 8.85419 111.498 8.85989 111.666 8.86769C111.832 8.87592 112.021 8.89111 112.239 8.91685V5.37501C112.087 5.36467 111.989 5.36024 111.946 5.35602C111.902 5.35201 111.848 5.34906 111.784 5.34906Z" fill="#141685"/>
<path d="M99.2148 15.4357C99.0713 15.6439 98.9168 15.8226 98.7461 15.9619C98.2629 16.367 97.6066 16.4902 96.8337 16.4902C96.102 16.4902 95.5303 16.3773 95.0123 16.0452C94.1583 15.5115 93.678 14.6081 93.6268 13.2817H103.094C103.108 12.1403 103.071 11.266 102.981 10.6576C102.823 9.62168 102.477 8.70879 101.946 7.92312C101.356 7.03239 100.604 6.38026 99.6992 5.96591C98.7932 5.55493 97.7752 5.34839 96.6443 5.34839C94.7377 5.34839 93.19 5.95937 91.9957 7.1807C90.8025 8.40478 90.2029 10.1597 90.2029 12.4502C90.2029 14.8956 90.8647 16.6604 92.188 17.7448C93.5098 18.8292 95.0378 19.3725 96.7665 19.3725C98.8616 19.3725 100.492 18.7297 101.656 17.4429C102.284 16.7661 102.678 16.0963 102.844 15.4359L99.2148 15.4357ZM94.6151 8.95373C95.0969 8.45077 95.7725 8.19865 96.6443 8.19865C97.4469 8.19865 98.118 8.43537 98.6613 8.91154C99.2013 9.38602 99.5039 10.0837 99.565 10.9998H93.7103C93.8327 10.1392 94.1357 9.45796 94.6151 8.95373Z" fill="#141685"/>
<path d="M88.8293 19.0392H85.7037V11.0323C85.7037 10.3006 85.4664 8.56048 83.4047 8.56048C82.0302 8.56048 81.0354 9.56915 81.0354 11.0323V19.0392H77.9071V11.0323C77.9071 10.3006 77.6937 8.56048 75.6332 8.56048C74.2346 8.56048 73.2626 9.56915 73.2626 11.0323V19.0392H70.1354V11.1082C70.1354 7.80245 72.2909 5.30261 75.6332 5.30261C77.2922 5.30261 78.6416 6.01128 79.5195 7.14695C80.4425 6.01128 81.8164 5.30261 83.4047 5.30261C86.8169 5.30261 88.8295 7.70097 88.8295 11.1082V19.0392H88.8293Z" fill="#141685"/>
<path d="M151.698 1.16752C151.698 1.16752 148.251 0.793043 148.251 3.60976L148.249 7.33874C147.867 6.71594 147.371 6.22817 146.759 5.87753C146.148 5.52583 145.449 5.34904 144.659 5.34904C142.95 5.34904 141.587 5.99673 140.565 7.29021C139.542 8.58518 139.033 10.4506 139.033 12.7068C139.033 14.6642 139.551 16.2693 140.589 17.5189C141.626 18.767 143.661 19.3151 145.467 19.3151C151.768 19.3151 151.695 13.8182 151.695 13.8182L151.698 1.16752ZM147.594 15.3887C147.095 16.1172 146.36 16.4809 145.4 16.4809C144.437 16.4809 143.72 16.1138 143.248 15.3826C142.775 14.6496 142.539 13.5832 142.539 12.3625C142.539 11.2297 142.77 10.2814 143.236 9.51726C143.7 8.75396 144.428 8.37019 145.423 8.37019C146.075 8.37019 146.647 8.58074 147.141 9.00079C147.944 9.6968 148.345 10.9453 148.345 12.5616C148.345 13.7182 148.094 14.6604 147.594 15.3887Z" fill="#141685"/>
<path d="M95.1218 41.1341C95.1218 41.6048 94.9532 42.0094 94.6164 42.3455C94.2825 42.6827 93.8798 42.851 93.4099 42.851H91.7009V30.7544C91.7009 28.402 92.4802 26.9286 93.7624 25.933C94.6104 25.2747 95.8735 24.6467 98.2391 24.6467C99.8365 24.6467 101.708 25.2775 102.718 26.5311C103.852 27.9408 104.325 29.5115 104.325 31.5637C104.325 33.6859 103.822 35.3981 102.817 36.7144C101.812 37.9948 100.519 38.6326 98.9429 38.6326C98.1049 38.6326 97.3677 38.4807 96.731 38.1798C96.0577 37.8423 95.5241 37.3214 95.1216 36.6136V41.1341H95.1218ZM100.856 31.7145C100.856 30.4018 100.605 29.3932 100.1 28.6849C99.5974 27.9807 98.8766 27.6239 97.9371 27.6239C97.0328 27.6239 96.3281 27.9805 95.8227 28.6849C95.3549 29.3252 95.1216 30.3377 95.1216 31.7145C95.1216 32.9979 95.3717 33.953 95.8758 34.5935C96.3772 35.3015 97.0995 35.6543 98.0384 35.6543C98.9089 35.6543 99.5974 35.3015 100.1 34.5935C100.605 33.8865 100.856 32.93 100.856 31.7145Z" fill="#05B0D9"/>
<path d="M126.998 37.517V36.6621C126.406 37.6056 125.605 38.1904 124.601 38.4277C123.596 38.6611 122.6 38.578 121.614 38.1733C120.625 37.7714 119.775 37.0224 119.067 35.9306C118.36 34.834 118.006 33.3962 118.006 31.6133C118.006 29.5303 118.476 27.8383 119.413 26.5438C120.352 25.2496 121.861 24.6589 123.935 24.6011C125.979 24.5463 127.168 25.0172 128.332 25.9136C129.605 26.8961 130.357 28.4039 130.357 30.7563V37.8731C130.362 40.1375 128.81 44.3346 123.935 43.9785C120.915 43.7557 119.239 42.4953 118.303 39.6392H121.91C122.173 40.1086 122.576 40.4704 123.122 40.7206C123.662 40.9763 124.209 41.0415 124.749 40.9236C125.292 40.8061 125.786 40.4769 126.234 39.9411C126.676 39.4027 126.931 38.5946 126.998 37.517ZM121.365 31.7164C121.365 34.0367 122.025 35.3224 123.342 35.5771C124.658 35.825 125.63 35.5142 126.257 34.6412C126.554 34.2737 126.766 33.6914 126.898 32.9025C127.029 32.1129 127.039 31.3301 126.923 30.5571C126.81 29.7816 126.537 29.0921 126.108 28.4866C125.681 27.8824 125.054 27.5784 124.231 27.5784C123.11 27.5784 122.355 28.0008 121.959 28.8381C121.561 29.6807 121.365 30.639 121.365 31.7164Z" fill="#05B0D9"/>
<path d="M115.08 25.5613C113.966 24.9889 112.693 24.6988 111.261 24.6988C109.057 24.6988 107.504 25.2834 106.599 26.4501C106.031 27.1969 105.71 28.1499 105.636 29.3111H108.929C109.009 28.7987 109.17 28.3932 109.413 28.094C109.753 27.6885 110.33 27.4853 111.145 27.4853C111.875 27.4853 112.426 27.5877 112.802 27.7961C113.176 28.0031 113.366 28.378 113.366 28.9219C113.366 29.3681 113.121 29.6966 112.63 29.908C112.358 30.0293 111.904 30.1308 111.267 30.212L110.101 30.3569C108.776 30.5276 107.769 30.8133 107.089 31.2103C105.841 31.9403 105.22 33.12 105.22 34.7502C105.22 36.0068 105.605 36.9796 106.381 37.6644C107.153 38.3497 108.136 38.6385 109.323 38.6942C116.763 39.0326 116.68 34.7043 116.748 33.8045V28.8229C116.748 27.225 116.192 26.1389 115.08 25.5613ZM113.35 33.1196C113.329 34.281 113.001 35.0783 112.374 35.5171C111.747 35.9547 111.062 36.1739 110.318 36.1739C109.847 36.1739 109.448 36.0412 109.121 35.7785C108.792 35.5155 108.627 35.0861 108.627 34.4935C108.627 33.8298 108.896 33.3386 109.433 33.0215C109.753 32.8357 110.273 32.6762 111.001 32.5496L111.778 32.4025C112.166 32.3278 112.47 32.2489 112.69 32.1629C112.916 32.0797 113.133 31.9692 113.35 31.8297L113.35 33.1196Z" fill="#05B0D9"/>
<path d="M143.3 26.6587C142.202 25.2589 140.536 24.5612 138.301 24.5612C136.071 24.5612 134.405 25.2589 133.308 26.6587C132.21 28.056 131.661 29.7071 131.661 31.6145C131.661 33.554 132.21 35.2116 133.308 36.5916C134.405 37.9663 136.071 38.6564 138.301 38.6564C140.536 38.6564 142.202 37.9663 143.3 36.5916C144.397 35.2116 144.944 33.5542 144.944 31.6145C144.944 29.7073 144.397 28.056 143.3 26.6587ZM140.581 34.6781C140.049 35.3977 139.287 35.7568 138.293 35.7568C137.299 35.7568 136.533 35.3977 135.998 34.6781C135.459 33.961 135.192 32.9386 135.192 31.6145C135.192 30.2909 135.459 29.2708 135.998 28.5569C136.533 27.8408 137.299 27.4849 138.293 27.4849C139.287 27.4849 140.049 27.8408 140.581 28.5569C141.114 29.2706 141.38 30.2907 141.38 31.6145C141.38 32.9386 141.114 33.961 140.581 34.6781Z" fill="#05B0D9"/>
</g>
<defs>
<clipPath id="clip0_125_493">
<rect width="166" height="44" fill="white"/>
</clipPath>
</defs>
</svg>
